                       =!DK GROUP HD BLURAY RELEAESEES!=

===================================================================================

The Mummy Returns(2001)1080p BDRip In[Hindi-Eng-Tamil]6CH.AC3 & 2CH.AC3 By !!!dip

===================================================================================

Storyline:

Many years ago, in Ancient Egypt, the Scorpian Kind led a menacing army, but when he sold his soul to Anubis, he was erased from history. Now he is only a myth...or is he? Rick and Evelyn O'Connell is still discovering new artifacts, along with their 8 year old son Alex. They discover the Bracelet of Anubis. But someone else is after the bracelet. High Priest Imhotep has been brought back from the dead once again and wants the bracelet, to control the Scorpian King's army. That's not the only problem. Imhotep now has Alex and with the bracelet attached to him, doesn't have long to live.  

Cast:

Brendan Fraser..............Richard 'Rick' O'Connell
Rachel Weisz................Evelyn 'Evy' Carnahan O'Connell / Princess Nefertiri
John Hannah.................Jonathan 'Jon' Carnahan
Arnold Vosloo...............High Priest Imhotep
Oded Fehr...................Ardeth Bay
Dwayne Johnson..............Mathayus the Scorpion King (as The Rock)
Freddie Boath...............Alexander Rupert 'Alex' O'Connell
Patricia Velasquez..........Meela Nais / Anck Su Namun
Alun Armstrong..............Baltus Hafez
Adewale Akinnuoye-Agbaje....Lock-Nah
Shaun Parkes................Izzy Buttons
Bruce Byron.................Red
Joe Dixon...................Jacques
Tom Fisher..................Spivey
Aharon Ipalé................Pharaoh Seti I 

Directors :Stephen Sommers
Writers :Stephen Sommers
Stars:Brendan Fraser, Rachel Weisz and John Hannah
Format :Color, Dubbed,Widescreen
Language :[Hindi-Eng-Tamil]6CH-AC3 & 2CH-AC3
Release Date :4 May 2001 (USA)
Run Time : 2h:04m:13s
Color :Color
SUBTITLE:NO
Encoder: Deep Shikha


Video Specifications:

Release Title/Year/Language...:The Mummy Returns(2001)1080p BDRip In[Hindi-Eng-Tamil]6CH.AC3 & 2CH.AC3 By !!!dip

Genre.........................:Action | Drama | Romance    
Source........................:BLURAY

Release Title/Year/Language...:The Mummy Returns(2001)1080p BDRip In[Hindi-Eng-Tamil]6CH.AC3 & 2CH.AC3 By !!!dip
Genre.........................:Action | Adventure | Fantasy 
Source........................:BLURAY

Video
ID                               : 1
Format                           : AVC
Format/Info                      : Advanced Video Codec
Format profile                   : High@L4.0
Format settings, CABAC           : Yes
Format settings, ReFrames        : 5 frames
Muxing mode                      : Header stripping
Codec ID                         : V_MPEG4/ISO/AVC
Duration                         : 2h 4mn
Width                            : 1920 pixels
Height                           : 816 pixels
Display aspect ratio             : 2.35:1
Frame rate                       : 25.000 fps
Original frame rate              : 23.976 fps
Color space                      : YUV
Chroma subsampling               : 4:2:0
Bit depth                        : 8 bits
Scan type                        : Progressive
Title                            : !!!dip
Team                             : DK Group HD Bluray Releases

Audio Specifications:


Audio #1
ID                               : 2
Format                           : AAC
Format/Info                      : Advanced Audio Codec
Format profile                   : LC
Codec ID                         : A_AAC
Duration                         : 2h 4mn
Channel(s)                       : 6 channels
Channel positions                : Front: L C R, Side: L R, LFE
Sampling rate                    : 48.0 KHz
Compression mode                 : Lossy
Title                            : !!!dip
Language                         : English

Audio #2
ID                               : 3
Format                           : AC-3
Format/Info                      : Audio Coding 3
Mode extension                   : CM (complete main)
Muxing mode                      : Header stripping
Codec ID                         : A_AC3
Duration                         : 2h 4mn
Bit rate mode                    : Constant
Bit rate                         : 192 Kbps
Channel(s)                       : 2 channels
Channel positions                : Front: L R
Sampling rate                    : 48.0 KHz
Bit depth                        : 16 bits
Compression mode                 : Lossy
Delay relative to video          : 2s 0ms
Stream size                      : 171 MiB (6%)
Title                            : !!!dip
Language                         : Hindi

Audio #3
ID                               : 4
Format                           : AC-3
Format/Info                      : Audio Coding 3
Mode extension                   : CM (complete main)
Muxing mode                      : Header stripping
Codec ID                         : A_AC3
Duration                         : 2h 4mn
Bit rate mode                    : Constant
Bit rate                         : 192 Kbps
Channel(s)                       : 2 channels
Channel positions                : Front: L R
Sampling rate                    : 48.0 KHz
Bit depth                        : 16 bits
Compression mode                 : Lossy
Delay relative to video          : 2s 0ms
Stream size                      : 171 MiB (6%)
Title                            : !!!dip
Language                         : Tamil

SAMPLE IMAGE:
 
http://www.pix2links.com/images/12921671412817072865.jpg
 
http://www.pix2links.com/images/06151401129981948211.jpg
 
http://www.pix2links.com/images/62048964455171686985.jpg
 
http://www.pix2links.com/images/84563627142599890972.jpg
 
http://www.pix2links.com/images/79314928861897311359.jpg

SAMPLE VIDEO INCLUDED: